<svg width="465" height="435" viewBox="0 0 465 435" fill="none" xmlns="http://www.w3.org/2000/svg">
<rect x="20.0162" y="20.0996" width="424.907" height="4.5681" fill="black"/>
<rect x="20.0162" y="409.299" width="424.907" height="4.5681" fill="black"/>
<rect width="34.1249" height="2.73592" transform="matrix(-0.747233 0.664562 -0.661502 -0.749943 51.5581 411.351)" fill="black"/>
<rect width="34.1249" height="2.73592" transform="matrix(-0.747233 0.664562 -0.661502 -0.749943 88.2686 411.351)" fill="black"/>
<rect width="34.1249" height="2.73592" transform="matrix(-0.747233 0.664562 -0.661502 -0.749943 122.843 411.351)" fill="black"/>
<rect width="34.1249" height="2.73592" transform="matrix(-0.747233 0.664562 -0.661502 -0.749943 155.597 411.351)" fill="black"/>
<rect width="34.1249" height="2.73592" transform="matrix(-0.747233 0.664562 -0.661502 -0.749943 192.303 411.351)" fill="black"/>
<rect width="34.1249" height="2.73592" transform="matrix(-0.747233 0.664562 -0.661502 -0.749943 226.882 411.351)" fill="black"/>
<rect width="34.1249" height="2.73592" transform="matrix(-0.747233 0.664562 -0.661502 -0.749943 259.32 411.351)" fill="black"/>
<rect width="34.1249" height="2.73592" transform="matrix(-0.747233 0.664562 -0.661502 -0.749943 296.034 411.351)" fill="black"/>
<rect width="34.1249" height="2.73592" transform="matrix(-0.747233 0.664562 -0.661502 -0.749943 330.605 411.351)" fill="black"/>
<rect width="34.1249" height="2.73592" transform="matrix(-0.747233 0.664562 -0.661502 -0.749943 363.363 411.351)" fill="black"/>
<rect width="34.1249" height="2.73592" transform="matrix(-0.747233 0.664562 -0.661502 -0.749943 400.069 411.351)" fill="black"/>
<rect width="34.1249" height="2.73592" transform="matrix(-0.747233 0.664562 -0.661502 -0.749943 434.64 411.351)" fill="black"/>
<rect width="34.1418" height="2.73456" transform="matrix(-0.661502 -0.749943 0.747233 -0.664562 22.585 53.917)" fill="black"/>
<rect width="34.1418" height="2.73456" transform="matrix(-0.661502 -0.749943 0.747233 -0.664562 22.585 90.7764)" fill="black"/>
<rect width="34.1418" height="2.73456" transform="matrix(-0.661502 -0.749943 0.747233 -0.664562 22.585 125.494)" fill="black"/>
<rect width="34.1418" height="2.73456" transform="matrix(-0.661502 -0.749943 0.747233 -0.664562 22.585 158.385)" fill="black"/>
<rect width="34.1418" height="2.73456" transform="matrix(-0.661502 -0.749943 0.747233 -0.664562 22.585 195.244)" fill="black"/>
<rect width="34.1418" height="2.73456" transform="matrix(-0.661502 -0.749943 0.747233 -0.664562 22.585 229.962)" fill="black"/>
<rect width="34.1418" height="2.73456" transform="matrix(-0.661502 -0.749943 0.747233 -0.664562 22.585 262.533)" fill="black"/>
<rect width="34.1418" height="2.73456" transform="matrix(-0.661502 -0.749943 0.747233 -0.664562 22.585 299.393)" fill="black"/>
<rect width="34.1418" height="2.73456" transform="matrix(-0.661502 -0.749943 0.747233 -0.664562 22.585 334.11)" fill="black"/>
<rect width="34.1418" height="2.73456" transform="matrix(-0.661502 -0.749943 0.747233 -0.664562 22.585 367)" fill="black"/>
<rect width="34.1418" height="2.73456" transform="matrix(-0.661502 -0.749943 0.747233 -0.664562 22.585 403.859)" fill="black"/>
<rect width="34.1418" height="2.73456" transform="matrix(0.661502 0.749943 -0.747233 0.664562 442.416 384.66)" fill="black"/>
<rect width="34.1418" height="2.73456" transform="matrix(0.661502 0.749943 -0.747233 0.664562 442.416 347.801)" fill="black"/>
<rect width="34.1418" height="2.73456" transform="matrix(0.661502 0.749943 -0.747233 0.664562 442.416 313.084)" fill="black"/>
<rect width="34.1418" height="2.73456" transform="matrix(0.661502 0.749943 -0.747233 0.664562 442.416 280.193)" fill="black"/>
<rect width="34.1418" height="2.73456" transform="matrix(0.661502 0.749943 -0.747233 0.664562 442.416 243.334)" fill="black"/>
<rect width="34.1418" height="2.73456" transform="matrix(0.661502 0.749943 -0.747233 0.664562 442.416 208.621)" fill="black"/>
<rect width="34.1418" height="2.73456" transform="matrix(0.661502 0.749943 -0.747233 0.664562 442.416 176.045)" fill="black"/>
<rect width="34.1418" height="2.73456" transform="matrix(0.661502 0.749943 -0.747233 0.664562 442.416 139.187)" fill="black"/>
<rect width="34.1418" height="2.73456" transform="matrix(0.661502 0.749943 -0.747233 0.664562 442.416 104.468)" fill="black"/>
<rect width="34.1418" height="2.73456" transform="matrix(0.661502 0.749943 -0.747233 0.664562 442.416 71.5771)" fill="black"/>
<rect width="34.1418" height="2.73456" transform="matrix(0.661502 0.749943 -0.747233 0.664562 442.416 34.7178)" fill="black"/>
<rect width="34.1249" height="2.73592" transform="matrix(-0.747233 0.664562 -0.661502 -0.749943 57.3308 2.05176)" fill="black"/>
<rect width="34.1249" height="2.73592" transform="matrix(-0.747233 0.664562 -0.661502 -0.749943 94.0374 2.05176)" fill="black"/>
<rect width="34.1249" height="2.73592" transform="matrix(-0.747233 0.664562 -0.661502 -0.749943 128.616 2.05176)" fill="black"/>
<rect width="34.1249" height="2.73592" transform="matrix(-0.747233 0.664562 -0.661502 -0.749943 161.37 2.05176)" fill="black"/>
<rect width="34.1249" height="2.73592" transform="matrix(-0.747233 0.664562 -0.661502 -0.749943 198.08 2.05176)" fill="black"/>
<rect width="34.1249" height="2.73592" transform="matrix(-0.747233 0.664562 -0.661502 -0.749943 232.651 2.05176)" fill="black"/>
<rect width="34.1249" height="2.73592" transform="matrix(-0.747233 0.664562 -0.661502 -0.749943 265.093 2.05176)" fill="black"/>
<rect width="34.1249" height="2.73592" transform="matrix(-0.747233 0.664562 -0.661502 -0.749943 301.803 2.05176)" fill="black"/>
<rect width="34.1249" height="2.73592" transform="matrix(-0.747233 0.664562 -0.661502 -0.749943 336.378 2.05176)" fill="black"/>
<rect width="34.1249" height="2.73592" transform="matrix(-0.747233 0.664562 -0.661502 -0.749943 369.132 2.05176)" fill="black"/>
<rect width="34.1249" height="2.73592" transform="matrix(-0.747233 0.664562 -0.661502 -0.749943 405.842 2.05176)" fill="black"/>
<rect width="34.1249" height="2.73592" transform="matrix(-0.747233 0.664562 -0.661502 -0.749943 440.413 2.05176)" fill="black"/>
<rect x="24.5651" y="22.8408" width="391.03" height="4.54933" transform="rotate(90 24.5651 22.8408)" fill="black"/>
<rect x="444.918" y="22.8408" width="391.03" height="4.54933" transform="rotate(90 444.918 22.8408)" fill="black"/>
</svg>
