<svg width="452" height="472" viewBox="0 0 452 472" fill="none" xmlns="http://www.w3.org/2000/svg">
<path d="M5 467H17.4248V472H0V442.968H5V467ZM80.3379 472H48.3965V467H80.3379V472ZM143.247 472H111.31V467H143.247V472ZM206.157 472H174.22V467H206.157V472ZM331.983 472H300.043V467H331.983V472ZM394.897 472H362.956V467H394.897V472ZM452 472H425.869V467H447V428.921H452V472ZM269.07 472H237.129V467H269.07V472ZM5 413H0V382.095H5V413ZM452 398.952H447V368.048H452V398.952ZM5 352.127H0V321.223H5V352.127ZM452 338.079H447V307.175H452V338.079ZM5 291.254H0V260.35H5V291.254ZM452 277.206H447V246.302H452V277.206ZM5 230.381H0V199.477H5V230.381ZM452 216.333H447V185.429H452V216.333ZM5 169.508H0V138.604H5V169.508ZM452 155.46H447V124.556H452V155.46ZM5 108.635H0V77.7305H5V108.635ZM452 94.5869H447V63.6826H452V94.5869ZM5 47.7617H0V16.8574H5V47.7617ZM452 33.7139H447V5H410.382V0H452V33.7139ZM64.8467 5H32.9082V0H64.8467V5ZM127.76 5H95.8193V0H127.76V5ZM190.674 5H158.732V0H190.674V5ZM253.587 5H221.646V0H253.587V5ZM316.497 5H284.56V0H316.497V5ZM379.41 5H347.469V0H379.41V5Z" fill="black"/>
</svg>
