<svg width="458" height="180" viewBox="0 0 458 180" fill="none" xmlns="http://www.w3.org/2000/svg">
<path d="M375.5 1.5H82.5M375.5 178.5H82.5" stroke="black" stroke-width="3"/>
<path d="M400.601 171.558C407.942 171.558 415.211 169.447 421.993 165.345C428.775 161.244 434.937 155.232 440.128 147.653C445.318 140.074 449.436 131.077 452.245 121.175C455.054 111.272 456.5 100.659 456.5 89.9412C456.5 79.2231 455.054 68.61 452.245 58.7077C449.436 48.8055 445.318 39.8081 440.128 32.2293C434.937 24.6504 428.775 18.6386 421.993 14.5369C415.211 10.4353 407.942 8.32422 400.601 8.32422" stroke="black" stroke-width="3"/>
<path d="M57.3988 8.3256C50.0581 8.3256 42.7892 10.4367 36.0073 14.5383C29.2253 18.64 23.0631 24.6518 17.8724 32.2307C12.6817 39.8095 8.56422 48.8069 5.75504 58.7091C2.94586 68.6113 1.5 79.2245 1.5 89.9426C1.5 100.661 2.94587 111.274 5.75505 121.176C8.56422 131.078 12.6817 140.076 17.8724 147.655C23.0631 155.233 29.2253 161.245 36.0073 165.347C42.7892 169.448 50.0581 171.56 57.3988 171.56" stroke="black" stroke-width="3"/>
</svg>
