<svg width="38" height="35" viewBox="0 0 38 35" fill="none" xmlns="http://www.w3.org/2000/svg">
<path d="M3.72077 18.0385C3.72077 22.1132 5.33946 26.0211 8.22074 28.9024C11.102 31.7837 15.0099 33.4023 19.0846 33.4023C23.1594 33.4023 27.0672 31.7837 29.9485 28.9024C32.8298 26.0211 34.4485 22.1132 34.4485 18.0385" stroke="black" stroke-width="1.64628"/>
<line x1="3.19179" y1="17.7326" x2="0.691529" y2="21.6055" stroke="black" stroke-width="1.64628"/>
<line y1="-0.823139" x2="4.60987" y2="-0.823139" transform="matrix(0.542373 0.840138 0.840138 -0.542373 4.93115 17.2861)" stroke="black" stroke-width="1.64628"/>
<path d="M33.9662 16.1871C33.9662 12.1124 32.3476 8.20449 29.4663 5.32321C26.585 2.44193 22.6771 0.823242 18.6024 0.823242C14.5276 0.823242 10.6198 2.44193 7.7385 5.32321C4.85721 8.20449 3.23853 12.1123 3.23853 16.1871" stroke="black" stroke-width="1.64628"/>
<line x1="33.8712" y1="16.5965" x2="36.3715" y2="12.7236" stroke="black" stroke-width="1.64628"/>
<line y1="-0.823139" x2="4.60987" y2="-0.823139" transform="matrix(-0.542373 -0.840138 -0.840138 0.542373 32.9485 17.043)" stroke="black" stroke-width="1.64628"/>
<path d="M3.72077 18.0385C3.72077 22.1132 5.33946 26.0211 8.22074 28.9024C11.102 31.7837 15.0099 33.4023 19.0846 33.4023C23.1594 33.4023 27.0672 31.7837 29.9485 28.9024C32.8298 26.0211 34.4485 22.1132 34.4485 18.0385" stroke="black" stroke-width="1.64628"/>
</svg>
