<svg width="456" height="644" viewBox="0 0 456 644" fill="none" xmlns="http://www.w3.org/2000/svg">
<path d="M339 575.741L395.733 639.741L454 575.741" stroke="black" stroke-width="5"/>
<rect x="456" y="66.7412" width="509" height="5" transform="rotate(90 456 66.7412)" fill="black"/>
<rect x="5" y="66.7412" width="509" height="5" transform="rotate(90 5 66.7412)" fill="black"/>
<path d="M117 67.7412L60.2668 3.74121L2 67.7412" stroke="black" stroke-width="5"/>
<path d="M229 67.7412L172.267 3.74121L114 67.7412" stroke="black" stroke-width="5"/>
<path d="M342 67.7412L285.267 3.74121L227 67.7412" stroke="black" stroke-width="5"/>
<path d="M454 67.7412L397.267 3.74121L339 67.7412" stroke="black" stroke-width="5"/>
<path d="M227 575.741L283.733 639.741L342 575.741" stroke="black" stroke-width="5"/>
<path d="M114 575.741L170.733 639.741L229 575.741" stroke="black" stroke-width="5"/>
<path d="M2 575.741L58.7332 639.741L117 575.741" stroke="black" stroke-width="5"/>
</svg>
